<mxfile host="Electron" modified="2023-05-05T03:53:46.569Z" agent="Mozilla/5.0 (Windows NT 10.0; Win64; x64) AppleWebKit/537.36 (KHTML, like Gecko) draw.io/21.1.2 Chrome/106.0.5249.199 Electron/21.4.3 Safari/537.36" etag="1YvXslMYgZZi2HeSVZQ4" version="21.1.2" type="device">
  <diagram id="aW8BC6xyf7XYzy20FpQa" name="Page-1">
    <mxGraphModel dx="1027" dy="629" grid="1" gridSize="10" guides="1" tooltips="1" connect="1" arrows="1" fold="1" page="1" pageScale="1" pageWidth="827" pageHeight="1169" math="0" shadow="0">
      <root>
        <mxCell id="0" />
        <mxCell id="1" parent="0" />
        <mxCell id="D1b6CC4PXVBS12xehJpQ-1" value="&lt;font color=&quot;#000000&quot;&gt;&lt;i&gt;A new block&lt;/i&gt;&lt;/font&gt;" style="text;html=1;strokeColor=none;fillColor=none;align=center;verticalAlign=middle;whiteSpace=wrap;rounded=0;shadow=0;fontSize=10;fontColor=#0000CC;" parent="1" vertex="1">
          <mxGeometry x="155" y="447" width="80" height="30" as="geometry" />
        </mxCell>
        <mxCell id="9gpKjKMT-mQXGkQns00l-3" value="&lt;font style=&quot;font-size: 10px;&quot;&gt;Key 1: Value 1&lt;br&gt;Key 2: Value 2&lt;br&gt;Key 2: Value 3&lt;/font&gt;" style="rounded=0;whiteSpace=wrap;html=1;fillColor=#ffcc99;strokeColor=#36393d;" parent="1" vertex="1">
          <mxGeometry x="139" y="401" width="110" height="50" as="geometry" />
        </mxCell>
        <mxCell id="9gpKjKMT-mQXGkQns00l-4" value="" style="rounded=1;whiteSpace=wrap;html=1;fillColor=#D5E8D4;shadow=0;" parent="1" vertex="1">
          <mxGeometry x="340" y="391" width="250" height="135" as="geometry" />
        </mxCell>
        <mxCell id="9gpKjKMT-mQXGkQns00l-5" value="VSCC" style="rounded=1;whiteSpace=wrap;html=1;fontSize=10;fillColor=#D0D0D0;" parent="1" vertex="1">
          <mxGeometry x="353" y="398" width="95" height="18" as="geometry" />
        </mxCell>
        <mxCell id="9gpKjKMT-mQXGkQns00l-8" value="&lt;font style=&quot;font-size: 10px;&quot;&gt;Key 1: Value 1 (valid)&lt;br&gt;Key 2: Value 2 (valid)&lt;br&gt;Key 2: Value 3 (invalid)&lt;/font&gt;" style="rounded=0;whiteSpace=wrap;html=1;fillColor=#ffcc99;strokeColor=#36393d;" parent="1" vertex="1">
          <mxGeometry x="471" y="405" width="110" height="50" as="geometry" />
        </mxCell>
        <mxCell id="9gpKjKMT-mQXGkQns00l-9" value="MVCC" style="rounded=1;whiteSpace=wrap;html=1;fontSize=10;fillColor=#D0D0D0;" parent="1" vertex="1">
          <mxGeometry x="354" y="427" width="95" height="18" as="geometry" />
        </mxCell>
        <mxCell id="9gpKjKMT-mQXGkQns00l-1" value="Disk" style="shape=datastore;whiteSpace=wrap;html=1;fillColor=#ffcccc;strokeColor=#36393d;" parent="1" vertex="1">
          <mxGeometry x="365" y="472" width="71" height="42" as="geometry" />
        </mxCell>
        <mxCell id="9gpKjKMT-mQXGkQns00l-10" value="" style="endArrow=classic;html=1;rounded=0;fontSize=10;curved=1;" parent="1" edge="1">
          <mxGeometry width="50" height="50" relative="1" as="geometry">
            <mxPoint x="250" y="407" as="sourcePoint" />
            <mxPoint x="352" y="407" as="targetPoint" />
          </mxGeometry>
        </mxCell>
        <mxCell id="9gpKjKMT-mQXGkQns00l-11" value="" style="endArrow=classic;html=1;rounded=0;fontSize=10;curved=1;" parent="1" edge="1">
          <mxGeometry width="50" height="50" relative="1" as="geometry">
            <mxPoint x="452" y="411" as="sourcePoint" />
            <mxPoint x="452" y="428" as="targetPoint" />
          </mxGeometry>
        </mxCell>
        <mxCell id="9gpKjKMT-mQXGkQns00l-12" value="" style="endArrow=classic;html=1;rounded=0;fontSize=10;curved=1;" parent="1" edge="1">
          <mxGeometry width="50" height="50" relative="1" as="geometry">
            <mxPoint x="451" y="435" as="sourcePoint" />
            <mxPoint x="469" y="435" as="targetPoint" />
          </mxGeometry>
        </mxCell>
        <mxCell id="9gpKjKMT-mQXGkQns00l-13" value="" style="endArrow=none;html=1;rounded=0;fontSize=10;dashed=1;" parent="1" edge="1">
          <mxGeometry width="50" height="50" relative="1" as="geometry">
            <mxPoint x="349" y="462" as="sourcePoint" />
            <mxPoint x="586" y="462" as="targetPoint" />
          </mxGeometry>
        </mxCell>
        <mxCell id="9gpKjKMT-mQXGkQns00l-15" value="" style="endArrow=classic;html=1;rounded=0;fontSize=10;curved=1;" parent="1" edge="1">
          <mxGeometry width="50" height="50" relative="1" as="geometry">
            <mxPoint x="445" y="506.33333333333326" as="sourcePoint" />
            <mxPoint x="479.5" y="506.33333333333326" as="targetPoint" />
          </mxGeometry>
        </mxCell>
        <mxCell id="9gpKjKMT-mQXGkQns00l-16" value="" style="curved=1;endArrow=classic;html=1;rounded=0;fontSize=10;" parent="1" edge="1">
          <mxGeometry width="50" height="50" relative="1" as="geometry">
            <mxPoint x="466" y="454" as="sourcePoint" />
            <mxPoint x="440" y="490" as="targetPoint" />
            <Array as="points">
              <mxPoint x="470" y="454" />
              <mxPoint x="470" y="490" />
            </Array>
          </mxGeometry>
        </mxCell>
        <mxCell id="9gpKjKMT-mQXGkQns00l-17" value="Commit" style="rounded=1;whiteSpace=wrap;html=1;fontSize=10;fillColor=#D0D0D0;" parent="1" vertex="1">
          <mxGeometry x="485" y="470" width="95" height="46" as="geometry" />
        </mxCell>
        <mxCell id="9gpKjKMT-mQXGkQns00l-18" value="&lt;font color=&quot;#000000&quot;&gt;&lt;i&gt;Fabric gateway&lt;/i&gt;&lt;/font&gt;" style="text;html=1;strokeColor=none;fillColor=none;align=center;verticalAlign=middle;whiteSpace=wrap;rounded=0;shadow=0;fontSize=10;fontColor=#0000CC;" parent="1" vertex="1">
          <mxGeometry x="258" y="401" width="80" height="30" as="geometry" />
        </mxCell>
        <mxCell id="9gpKjKMT-mQXGkQns00l-19" value="1" style="ellipse;whiteSpace=wrap;html=1;aspect=fixed;fontSize=10;strokeColor=#000000;fillColor=#FFFFFF;fontStyle=1" parent="1" vertex="1">
          <mxGeometry x="249" y="367" width="11" height="11" as="geometry" />
        </mxCell>
        <mxCell id="9gpKjKMT-mQXGkQns00l-20" value="2" style="ellipse;whiteSpace=wrap;html=1;aspect=fixed;fontSize=10;strokeColor=#000000;fillColor=#FFFFFF;fontStyle=1" parent="1" vertex="1">
          <mxGeometry x="455" y="402" width="11" height="11" as="geometry" />
        </mxCell>
        <mxCell id="9gpKjKMT-mQXGkQns00l-21" value="3" style="ellipse;whiteSpace=wrap;html=1;aspect=fixed;fontSize=10;strokeColor=#000000;fillColor=#FFFFFF;fontStyle=1" parent="1" vertex="1">
          <mxGeometry x="450" y="439" width="11" height="11" as="geometry" />
        </mxCell>
        <mxCell id="9gpKjKMT-mQXGkQns00l-22" value="5" style="ellipse;whiteSpace=wrap;html=1;aspect=fixed;fontSize=10;strokeColor=#000000;fillColor=#FFFFFF;fontStyle=1" parent="1" vertex="1">
          <mxGeometry x="456" y="493" width="11" height="11" as="geometry" />
        </mxCell>
        <mxCell id="9gpKjKMT-mQXGkQns00l-24" value="4" style="ellipse;whiteSpace=wrap;html=1;aspect=fixed;fontSize=10;strokeColor=#000000;fillColor=#FFFFFF;fontStyle=1" parent="1" vertex="1">
          <mxGeometry x="452" y="471" width="11" height="11" as="geometry" />
        </mxCell>
        <mxCell id="YzD2XapH2mnAXQ2hJMck-1" value="" style="endArrow=classic;html=1;rounded=0;fontSize=10;curved=1;" parent="1" edge="1">
          <mxGeometry width="50" height="50" relative="1" as="geometry">
            <mxPoint x="582" y="494.33333333333337" as="sourcePoint" />
            <mxPoint x="616.5" y="494.33333333333337" as="targetPoint" />
          </mxGeometry>
        </mxCell>
        <mxCell id="YzD2XapH2mnAXQ2hJMck-2" value="6" style="ellipse;whiteSpace=wrap;html=1;aspect=fixed;fontSize=10;strokeColor=#000000;fillColor=#FFFFFF;fontStyle=1" parent="1" vertex="1">
          <mxGeometry x="594" y="479" width="11" height="11" as="geometry" />
        </mxCell>
        <mxCell id="YzD2XapH2mnAXQ2hJMck-3" value="Respond" style="text;strokeColor=none;fillColor=none;align=left;verticalAlign=middle;spacingLeft=4;spacingRight=4;overflow=hidden;points=[[0,0.5],[1,0.5]];portConstraint=eastwest;rotatable=0;fontSize=10;fontColor=#000000;" parent="1" vertex="1">
          <mxGeometry x="603" y="469" width="54" height="30" as="geometry" />
        </mxCell>
        <mxCell id="YzD2XapH2mnAXQ2hJMck-4" value="Request" style="text;strokeColor=none;fillColor=none;align=left;verticalAlign=middle;spacingLeft=4;spacingRight=4;overflow=hidden;points=[[0,0.5],[1,0.5]];portConstraint=eastwest;rotatable=0;fontSize=10;fontColor=#000000;" parent="1" vertex="1">
          <mxGeometry x="260" y="357" width="54" height="30" as="geometry" />
        </mxCell>
        <mxCell id="YzD2XapH2mnAXQ2hJMck-5" value="(a transaction &#xa;in the new block)" style="text;strokeColor=none;fillColor=none;align=left;verticalAlign=middle;spacingLeft=4;spacingRight=4;overflow=hidden;points=[[0,0.5],[1,0.5]];portConstraint=eastwest;rotatable=0;fontSize=10;fontColor=#000000;" parent="1" vertex="1">
          <mxGeometry x="257" y="376" width="117" height="30" as="geometry" />
        </mxCell>
        <mxCell id="YzD2XapH2mnAXQ2hJMck-6" value="(a committed &#xa;transaction&#xa;in the new block)" style="text;strokeColor=none;fillColor=none;align=left;verticalAlign=middle;spacingLeft=4;spacingRight=4;overflow=hidden;points=[[0,0.5],[1,0.5]];portConstraint=eastwest;rotatable=0;fontSize=10;fontColor=#000000;" parent="1" vertex="1">
          <mxGeometry x="587" y="498" width="89" height="42" as="geometry" />
        </mxCell>
        <mxCell id="8Ztfw_9N8FLwwopJZy-F-1" value="A committing peer" style="text;strokeColor=none;fillColor=none;align=left;verticalAlign=middle;spacingLeft=4;spacingRight=4;overflow=hidden;points=[[0,0.5],[1,0.5]];portConstraint=eastwest;rotatable=0;fontSize=10;fontColor=#000000;" parent="1" vertex="1">
          <mxGeometry x="420" y="524" width="108" height="30" as="geometry" />
        </mxCell>
      </root>
    </mxGraphModel>
  </diagram>
</mxfile>
